# xmcd
#
# Track frame offsets: 
#        150
#        11738
#        24821
#        34322
#        47594
#        60448
#        75612
#        94587
#        107175
#        121231
#        142967
#        162303
#        176971
#        195255
#        204372
#        215237
#        238416
#        254905
#        271468
#        289241
#
# Disc length: 4053 seconds
#
# Revision: 1
# Processed by: cddbd v1.5.2PL0 Copyright (c) Steve Scherf et al.
# Submitted via: ExactAudioCopy v0.99pb4
#
DISCID=260fd314
DTITLE=Various Artist - 100 Grootste Kerst Hits ... allertijden, De [CD 4)
DYEAR=2006
DGENRE=Christmas
TTITLE0=Sinatra, Frank - Santa Claus is Comin' To Town
TTITLE1=Como, Perry - C.H.R.I.S.T.M.A.S.
TTITLE2=Bennett, Tony - White Christmas
TTITLE3=Reeves, Jim - Silver Bells
TTITLE4=Collins, Judy - The Little Road To Betlehem
TTITLE5=Andrews, Julie - The Secret Of Christmas
TTITLE6=3T - I Need You (Christmas Mix)
TTITLE7=Armstrong, Louis - Zat You Santa Claus
TTITLE8=Joe - This Christmas
TTITLE9=Close II You - Baby Don't Go (Xmasmix)
TTITLE10=Surface - Christmas Time is Here
TTITLE11=Solid Harmonie - Give Love On Christmas Day
TTITLE12=*NSYNC - I Don't Wanna Spend One More Christmas Without You
TTITLE13=McGovern, Maureen - Our First Christmas
TTITLE14=Nelson, Willie - Away In A Manger
TTITLE15=Blue, Deacon - Christmas and Glasgow
TTITLE16=Steps - Mary X-Mas Everyone
TTITLE17=Hammond, Albert - Under The Christmas Tree
TTITLE18=Jackson, Mahalia - O Little Town Of Bethlehem
TTITLE19=New London Chorale - Unto Us A Child Is Born
EXTD=YEAR: 2006
EXTT0=
EXTT1=
EXTT2=
EXTT3=
EXTT4=
EXTT5=
EXTT6=
EXTT7=
EXTT8=
EXTT9=
EXTT10=
EXTT11=
EXTT12=
EXTT13=
EXTT14=
EXTT15=
EXTT16=
EXTT17=
EXTT18=
EXTT19=
PLAYORDER=
